<svg xmlns="http://www.w3.org/2000/svg" xmlns:xlink="http://www.w3.org/1999/xlink" width="300" zoomAndPan="magnify" viewBox="0 0 224.87999 225" height="300" preserveAspectRatio="xMidYMid meet" version="1.0"><defs><g/></defs><g fill="#000000" fill-opacity="1"><g transform="translate(67.463007, 175.351744)"><g><path d="M 41.34375 -15.488281 C 43.230469 -14.410156 46.191406 -15.351562 47.945312 -16.566406 C 51.042969 -18.71875 54.003906 -21.007812 57.234375 -23.296875 C 62.21875 -26.664062 75.6875 -36.226562 76.359375 -36.765625 C 78.246094 -38.246094 79.59375 -41.34375 77.570312 -42.421875 C 77.035156 -42.828125 75.550781 -41.75 74.609375 -41.210938 C 74.070312 -40.941406 61.277344 -32.320312 55.082031 -28.417969 C 54.40625 -28.417969 53.0625 -27.203125 52.523438 -26.933594 L 50.097656 -25.589844 C 48.347656 -24.511719 46.597656 -23.164062 44.847656 -21.953125 C 46.867188 -26.394531 49.695312 -30.03125 52.386719 -34.074219 C 55.484375 -38.652344 58.179688 -43.363281 60.871094 -48.078125 C 61.140625 -48.617188 61.140625 -49.558594 60.871094 -49.964844 C 60.199219 -50.90625 59.257812 -51.714844 58.3125 -52.386719 C 57.371094 -53.195312 56.292969 -53.0625 55.351562 -52.386719 L 43.363281 -43.230469 C 40.265625 -40.804688 37.304688 -38.113281 34.207031 -35.554688 C 34.207031 -35.554688 33.9375 -35.417969 33.804688 -35.554688 C 33.667969 -35.6875 33.535156 -36.09375 33.535156 -36.226562 C 33.804688 -36.902344 34.207031 -37.574219 34.476562 -38.246094 C 35.957031 -41.34375 37.4375 -44.441406 38.785156 -47.539062 C 39.054688 -48.347656 39.324219 -49.695312 39.054688 -49.964844 C 37.707031 -51.175781 36.363281 -52.386719 34.746094 -53.0625 C 33.398438 -53.734375 32.859375 -52.117188 31.917969 -51.445312 L 25.855469 -47 C 24.375 -45.921875 22.761719 -44.980469 21.546875 -43.769531 C 19.125 -41.210938 15.890625 -39.59375 13.46875 -37.171875 C 13.0625 -36.765625 12.390625 -36.496094 11.851562 -36.226562 C 11.714844 -36.09375 11.3125 -36.226562 11.179688 -36.363281 C 11.042969 -36.496094 10.910156 -36.902344 11.042969 -37.171875 C 11.582031 -38.246094 12.253906 -39.191406 12.792969 -40.265625 C 13.46875 -41.34375 18.449219 -50.636719 18.988281 -51.847656 C 19.933594 -53.871094 18.179688 -55.890625 15.890625 -56.023438 C 14.679688 -56.023438 14.140625 -54.542969 13.601562 -53.601562 L 7.003906 -41.75 C 4.039062 -36.496094 0.808594 -31.246094 -2.019531 -25.855469 L -4.039062 -22.222656 C -4.308594 -21.414062 -4.847656 -20.605469 -4.984375 -19.664062 C -5.386719 -17.777344 -4.578125 -16.429688 -2.558594 -15.488281 C -1.347656 -14.949219 -0.402344 -15.21875 0.941406 -16.699219 L 1.480469 -17.371094 C 5.65625 -22.894531 11.3125 -27.070312 16.160156 -32.050781 C 18.179688 -34.207031 20.46875 -36.09375 22.894531 -37.707031 C 24.375 -38.785156 25.320312 -40.804688 27.742188 -40.265625 C 26.933594 -38.921875 26.261719 -37.4375 25.589844 -36.09375 C 24.914062 -34.878906 24.105469 -33.804688 23.433594 -32.726562 C 21.683594 -29.628906 19.933594 -26.53125 18.316406 -23.433594 C 17.777344 -22.492188 17.507812 -21.546875 17.238281 -20.46875 C 16.96875 -18.71875 18.046875 -16.835938 19.933594 -15.757812 C 21.414062 -14.949219 22.222656 -16.027344 23.027344 -16.835938 C 27.339844 -20.738281 31.648438 -24.78125 35.957031 -28.820312 L 44.980469 -37.4375 C 45.25 -37.707031 45.65625 -37.976562 46.058594 -38.113281 C 46.328125 -38.246094 46.730469 -38.113281 46.867188 -37.976562 C 47 -37.84375 47 -37.4375 47 -37.304688 C 46.730469 -36.765625 46.460938 -36.09375 46.191406 -35.6875 C 43.5 -32.320312 42.558594 -28.28125 40.941406 -24.511719 C 40.265625 -22.894531 40 -21.007812 39.863281 -19.257812 C 39.59375 -17.777344 40 -16.296875 41.34375 -15.488281 Z M 41.34375 -15.488281 "/></g></g></g><g fill="#000000" fill-opacity="1"><g transform="translate(135.742438, 175.351744)"><g><path d="M 8.753906 -14.8125 C 10.910156 -15.21875 13.199219 -16.835938 15.082031 -18.046875 C 16.429688 -18.855469 17.507812 -20.066406 18.855469 -20.875 C 20.066406 -21.546875 21.277344 -22.355469 22.492188 -23.296875 C 27.472656 -26.664062 40.941406 -36.226562 41.613281 -36.765625 C 43.5 -38.246094 44.980469 -41.210938 42.960938 -42.421875 C 42.421875 -42.828125 40.804688 -41.75 39.863281 -41.210938 C 37.707031 -40.132812 35.957031 -38.515625 33.9375 -37.035156 C 32.050781 -35.6875 30.167969 -34.339844 28.148438 -33.128906 C 26.125 -31.917969 24.375 -30.4375 22.492188 -29.089844 C 19.664062 -26.800781 16.699219 -24.644531 13.601562 -22.894531 C 11.582031 -21.683594 6.867188 -18.449219 4.445312 -19.664062 C 1.75 -21.007812 3.097656 -25.992188 3.90625 -28.011719 C 7.136719 -36.09375 13.0625 -42.960938 20.605469 -47.40625 C 21.414062 -47.945312 22.222656 -48.347656 23.027344 -48.484375 C 23.972656 -48.617188 25.050781 -48.214844 25.453125 -47.40625 C 25.992188 -46.328125 25.183594 -44.847656 25.589844 -43.632812 C 28.011719 -43.769531 30.570312 -43.902344 30.4375 -46.730469 C 30.300781 -50.503906 26.933594 -54.40625 23.027344 -54.273438 C 18.988281 -54.273438 14.140625 -49.425781 11.3125 -47 C 7.136719 -43.363281 3.230469 -39.324219 0.671875 -34.476562 C -1.886719 -29.628906 -3.097656 -23.835938 -1.75 -18.585938 C -1.480469 -17.105469 1.886719 -15.621094 3.097656 -15.21875 C 4.847656 -14.542969 6.867188 -14.410156 8.753906 -14.8125 Z M 8.753906 -14.8125 "/></g></g></g><g fill="#000000" fill-opacity="1"><g transform="translate(170.084167, 175.351744)"><g><path d="M 6.597656 -15.757812 C 8.214844 -17.105469 9.023438 -18.449219 8.617188 -20.738281 C 7.273438 -24.644531 0.402344 -27.070312 0 -21.546875 C 0 -20.066406 0.402344 -18.449219 1.480469 -17.507812 C 3.5 -15.488281 5.117188 -14.542969 6.597656 -15.757812 Z M 6.597656 -15.757812 "/></g></g></g><g fill="#000000" fill-opacity="1"><g transform="translate(29.280984, 186.818814)"><g><path d="M 2.09375 0 L 2.09375 -4.902344 L 4.144531 -2.0625 L 4.484375 -2.0625 L 6.558594 -4.894531 L 6.558594 0 L 7.824219 0 L 7.824219 -6.925781 L 6.71875 -6.925781 L 4.316406 -3.695312 L 1.929688 -6.925781 L 0.824219 -6.925781 L 0.824219 0 Z M 2.09375 0 "/></g></g></g><g fill="#000000" fill-opacity="1"><g transform="translate(46.26669, 186.818814)"><g><path d="M 7.011719 0 L 4.128906 -6.929688 L 2.925781 -6.929688 L 0.046875 0 L 1.386719 0 L 1.933594 -1.339844 L 5.121094 -1.339844 L 5.671875 0 Z M 3.484375 -5.125 L 3.523438 -5.296875 L 3.539062 -5.296875 L 3.570312 -5.125 L 4.6875 -2.398438 L 2.367188 -2.398438 Z M 3.484375 -5.125 "/></g></g></g><g fill="#000000" fill-opacity="1"><g transform="translate(61.669435, 186.818814)"><g><path d="M 2.09375 0 L 2.09375 -4.84375 L 5.863281 0 L 6.949219 0 L 6.949219 -6.925781 L 5.6875 -6.925781 L 5.6875 -2.078125 L 1.914062 -6.925781 L 0.824219 -6.925781 L 0.824219 0 Z M 2.09375 0 "/></g></g></g><g fill="#000000" fill-opacity="1"><g transform="translate(77.784764, 186.818814)"><g><path d="M 3.507812 0 C 5.707031 0 7.171875 -1.386719 7.171875 -3.46875 C 7.171875 -5.539062 5.703125 -6.925781 3.492188 -6.925781 L 0.824219 -6.925781 L 0.824219 0 Z M 2.070312 -5.800781 L 3.457031 -5.800781 C 5.011719 -5.800781 5.894531 -4.863281 5.894531 -3.445312 C 5.894531 -2.019531 4.984375 -1.128906 3.46875 -1.128906 L 2.070312 -1.128906 Z M 2.070312 -5.800781 "/></g></g></g><g fill="#000000" fill-opacity="1"><g transform="translate(93.640514, 186.818814)"><g><path d="M 4.066406 0 L 4.066406 -2.640625 L 6.800781 -6.925781 L 5.308594 -6.925781 L 3.441406 -3.761719 L 3.4375 -3.761719 L 1.554688 -6.925781 L 0.078125 -6.925781 L 2.800781 -2.632812 L 2.800781 0 Z M 4.066406 0 "/></g></g></g><g fill="#000000" fill-opacity="1"><g transform="translate(108.855702, 186.818814)"><g/></g></g><g fill="#000000" fill-opacity="1"><g transform="translate(119.738612, 186.818814)"><g/></g></g><g fill="#000000" fill-opacity="1"><g transform="translate(130.621521, 186.818814)"><g/></g></g><g fill="#000000" fill-opacity="1"><g transform="translate(141.498437, 186.818814)"><g><path d="M 3.992188 0.148438 C 5.46875 0.148438 7.011719 -0.703125 7.332031 -2.554688 L 6.03125 -2.554688 C 5.761719 -1.492188 4.9375 -1.019531 3.957031 -1.019531 C 2.648438 -1.019531 1.605469 -1.964844 1.605469 -3.46875 C 1.605469 -4.945312 2.648438 -5.925781 3.957031 -5.925781 C 4.945312 -5.925781 5.761719 -5.449219 6.039062 -4.382812 L 7.332031 -4.382812 C 7.011719 -6.230469 5.453125 -7.085938 3.992188 -7.085938 C 1.949219 -7.085938 0.335938 -5.484375 0.335938 -3.472656 C 0.335938 -1.460938 1.949219 0.148438 3.992188 0.148438 Z M 3.992188 0.148438 "/></g></g></g><g fill="#000000" fill-opacity="1"><g transform="translate(157.511971, 186.818814)"><g><path d="M 2.09375 0 L 2.09375 -2.921875 L 5.585938 -2.921875 L 5.585938 0 L 6.859375 0 L 6.859375 -6.925781 L 5.585938 -6.925781 L 5.585938 -4.050781 L 2.09375 -4.050781 L 2.09375 -6.925781 L 0.824219 -6.925781 L 0.824219 0 Z M 2.09375 0 "/></g></g></g><g fill="#000000" fill-opacity="1"><g transform="translate(173.535684, 186.818814)"><g><path d="M 5.617188 0 L 5.617188 -1.136719 L 2.09375 -1.136719 L 2.09375 -2.984375 L 5.097656 -2.984375 L 5.097656 -4.050781 L 2.09375 -4.050781 L 2.09375 -5.789062 L 5.570312 -5.789062 L 5.570312 -6.925781 L 0.824219 -6.925781 L 0.824219 0 Z M 5.617188 0 "/></g></g></g><g fill="#000000" fill-opacity="1"><g transform="translate(187.82374, 186.818814)"><g><path d="M 2.09375 0 L 2.09375 -4.84375 L 5.863281 0 L 6.949219 0 L 6.949219 -6.925781 L 5.6875 -6.925781 L 5.6875 -2.078125 L 1.914062 -6.925781 L 0.824219 -6.925781 L 0.824219 0 Z M 2.09375 0 "/></g></g></g></svg>